<svg width="12" height="12" viewBox="0 0 12 12" fill="none" xmlns="http://www.w3.org/2000/svg">
<path fill-rule="evenodd" clip-rule="evenodd" d="M1.41151 0.380224C1.12676 0.0954672 0.665073 0.0954672 0.380316 0.380224C0.0955587 0.664982 0.0955587 1.12666 0.380316 1.41142L4.96888 5.99999L0.380316 10.5886C0.0955587 10.8733 0.0955587 11.335 0.380316 11.6198C0.665073 11.9045 1.12676 11.9045 1.41151 11.6198L6.00008 7.03119L10.5886 11.6198C10.8734 11.9045 11.3351 11.9045 11.6198 11.6198C11.9046 11.335 11.9046 10.8733 11.6198 10.5886L7.03128 5.99999L11.6198 1.41142C11.9046 1.12666 11.9046 0.664982 11.6198 0.380224C11.3351 0.0954672 10.8734 0.0954672 10.5886 0.380224L6.00008 4.96879L1.41151 0.380224Z" fill="white"/>
</svg>
